<svg width="20" height="20" viewBox="0 0 20 20" fill="none" xmlns="http://www.w3.org/2000/svg">
<path d="M15.365 0H4.63329C2.20862 0 0.243042 1.96558 0.243042 4.39024V15.6098C0.243042 18.0344 2.20862 20 4.63329 20H15.365C17.7897 20 19.7552 18.0344 19.7552 15.6098V4.39024C19.7552 1.96558 17.7897 0 15.365 0Z" fill="#EEEEEE"/>
<path d="M15.2614 8.29886V11.0598C15.2551 11.1003 15.2458 11.1403 15.2429 11.1808C15.2284 11.5033 15.169 11.8221 15.0663 12.1281C15.0027 12.3214 14.8992 12.4991 14.7623 12.6496C14.6255 12.8001 14.4585 12.9201 14.2721 13.0018C13.9473 13.1383 13.6 13.2133 13.2478 13.2233C12.8941 13.2418 12.539 13.2457 12.1843 13.2462C10.7336 13.2462 9.28288 13.2462 7.83263 13.2408C7.39068 13.248 6.95142 13.1707 6.53849 13.013C6.20062 12.8865 5.91924 12.6432 5.74531 12.3272C5.56297 11.9771 5.4676 11.5882 5.46727 11.1935C5.44727 10.3901 5.44727 9.59008 5.44727 8.78813C5.44727 8.47252 5.46239 8.15398 5.48483 7.84081C5.49959 7.58482 5.57213 7.33549 5.69702 7.11155C5.8006 6.94564 5.93797 6.80343 6.10019 6.69416C6.2624 6.5849 6.44582 6.51104 6.63849 6.4774C7.05247 6.38081 7.47687 6.33607 7.9019 6.34423C9.48044 6.34228 11.0588 6.3413 12.637 6.3413C13.094 6.33039 13.5508 6.37015 13.999 6.45984C14.2831 6.51094 14.5487 6.63632 14.7687 6.82325C15.0229 7.07544 15.1773 7.41104 15.2034 7.76813C15.2278 7.94423 15.2414 8.12179 15.2604 8.29886M9.22336 9.74911C9.22336 10.0906 9.22336 10.432 9.22336 10.7735C9.21402 10.8362 9.22341 10.9003 9.25038 10.9578C9.27734 11.0152 9.32067 11.0634 9.37492 11.0963C9.42916 11.1291 9.49192 11.1453 9.5553 11.1426C9.61868 11.1399 9.67986 11.1186 9.73117 11.0813C10.3874 10.7398 11.0435 10.3984 11.6995 10.0569C11.7623 10.034 11.8167 9.99226 11.855 9.93742C11.8934 9.88258 11.914 9.81726 11.914 9.75033C11.914 9.68339 11.8934 9.61808 11.855 9.56323C11.8167 9.50839 11.7623 9.46668 11.6995 9.44374C11.0435 9.10455 10.3894 8.76472 9.73702 8.42423C9.68554 8.38625 9.62398 8.36433 9.56008 8.36125C9.49617 8.35817 9.43279 8.37404 9.37789 8.40689C9.32299 8.43974 9.27903 8.48808 9.25153 8.54585C9.22404 8.60362 9.21424 8.66822 9.22336 8.73155C9.22336 9.07008 9.22336 9.40862 9.22336 9.74715" fill="#4B4B4B"/>
</svg>
