<?xml version="1.0" encoding="utf-8"?>
<svg id="Layer_1" data-name="Layer 1" viewBox="0 0 122.88 122.31" xmlns="http://www.w3.org/2000/svg">
  <defs>
    <style>.cls-1{fill:#EEEEEE;}.cls-1,.cls-2{fill-rule:evenodd;}.cls-2{fill:#4B4B4B;}</style>
  </defs>
  <title>linkedin-app</title>
  <path class="cls-1" d="M27.75,0H95.13a27.83,27.83,0,0,1,27.75,27.75V94.57a27.83,27.83,0,0,1-27.75,27.74H27.75A27.83,27.83,0,0,1,0,94.57V27.75A27.83,27.83,0,0,1,27.75,0Z"/>
  <path class="cls-2" d="M 52.204 48.593 L 65.27 48.593 L 65.27 55.324 L 65.455 55.324 C 67.28 52.06 71.723 48.593 78.361 48.593 C 92.15 48.593 94.7 57.175 94.7 68.339 L 94.7 91.948 L 81.078 91.948 L 81.078 70.965 C 81.078 66.161 80.978 59.977 73.995 59.977 C 67.011 59.977 65.816 65.201 65.816 70.62 L 65.816 91.99 L 52.204 91.99 L 52.204 48.593 Z M 44.472 35.451 C 44.472 40.905 38.567 44.313 33.845 41.586 C 29.122 38.859 29.122 32.043 33.845 29.316 C 34.922 28.694 36.143 28.367 37.387 28.367 C 41.297 28.372 44.467 31.54 44.472 35.451 Z M 30.32 48.593 L 44.472 48.593 L 44.472 91.948 L 30.32 91.948 L 30.32 48.593 Z" style=""/>
</svg>
